<?xml version="1.0" encoding="iso-8859-1"?>
<!-- Uploaded to: SVG Repo, www.svgrepo.com, Generator: SVG Repo Mixer Tools -->
<svg height="800px" width="800px" version="1.1" id="Layer_1" xmlns="http://www.w3.org/2000/svg" xmlns:xlink="http://www.w3.org/1999/xlink" 
	 viewBox="0 0 512 512" xml:space="preserve">
<g>
	<path style="fill:#4C213A;" d="M328.218,512c-40.581,0-56.669-7.844-67.314-13.035c-3.048-1.486-4.005-1.917-4.675-2.056
		c-0.524,0.224-1.9,0.935-3.128,1.568C242.653,503.865,226.875,512,183.782,512c-37.203,0-71.169-24.648-100.955-73.258
		c-22.265-36.336-36.487-76.82-42.983-97.719l-0.663-2.142C26.345,297.666,2.436,220.894,70.377,152.953
		c22.405-22.401,48.048-33.29,78.395-33.29c26.741,0,51.265,8.662,72.902,16.304c12.835,4.532,26.087,9.21,34.329,9.626
		c8.24-0.413,21.485-5.091,34.304-9.618c21.659-7.65,46.181-16.312,72.923-16.312c30.35,0,55.991,10.889,78.392,33.29
		c67.946,67.944,44.034,144.718,31.189,185.967l-0.661,2.121c-3.805,12.244-10.302,31.306-19.614,52.495
		c-3.324,7.566-12.151,11.001-19.716,7.678c-7.564-3.326-11.002-12.153-7.676-19.717c8.751-19.911,14.858-37.829,18.439-49.353
		l0.664-2.129c12.494-40.115,31.378-100.748-23.78-155.903c-16.734-16.734-34.92-24.527-57.234-24.527
		c-21.613,0-43.565,7.756-62.933,14.596c-15.944,5.631-30.98,10.941-43.828,11.339c-0.31,0.009-0.619,0.009-0.929,0
		c-12.851-0.399-27.893-5.711-43.818-11.333c-19.383-6.846-41.337-14.602-62.95-14.602c-22.314,0-40.501,7.793-57.237,24.527
		c-55.15,55.152-36.268,115.783-23.774,155.902l0.664,2.151c22.524,72.463,64.661,149.914,115.356,149.914
		c35.833,0,46.793-5.651,55.599-10.193c4.85-2.5,9.027-4.653,16.016-4.952c0.41-0.018,0.821-0.016,1.233-0.002
		c7.462,0.298,12.061,2.539,17.386,5.136c9.147,4.46,20.526,10.009,54.202,10.009c20.38,0,40.556-12.347,59.969-36.699
		c5.151-6.463,14.564-7.521,21.025-2.373c6.462,5.15,7.524,14.563,2.373,21.025C386.209,495.861,358.16,512,328.218,512z"/>
	<path style="fill:#4C213A;" d="M251.89,175.149c-0.805,0-1.62-0.066-2.44-0.2c-23.577-3.867-76.165-20.378-96.769-42.755
		c-23.345-25.353-30.64-54.354-32.649-74.22c-1.843-18.228-0.25-43.031,10.311-52.945c5.19-4.873,12.67-6.079,25.826-4.161
		c8.748,1.275,19.271,3.878,29.633,7.331c16.132,5.375,46.394,17.729,67.81,40.064c11.632,12.132,20.474,28.643,25.568,47.743
		c2.129,7.985-2.617,16.182-10.6,18.311c-7.979,2.133-16.182-2.617-18.311-10.6c-3.797-14.235-10.109-26.25-18.255-34.747
		c-23.284-24.285-64.859-36.678-81.501-38.771c-3.107,14.68-2.235,53.033,24.181,81.726c13.326,14.473,56.735,29.745,79.6,33.496
		c8.154,1.338,13.68,9.032,12.343,17.186C265.431,169.941,259.086,175.148,251.89,175.149z"/>
</g>
<path style="fill:#E7B3A8;" d="M304.62,235.578c-26.541,0-41.751,23.988-47.362,23.988c-6.001,0-19.633-23.988-47.363-23.988
	c-26.973,0-48.999,22.245-50.441,49.181c-0.812,15.217,4.092,26.795,11.007,37.286c13.807,20.954,81.357,74.04,86.887,74.04
	c6.08,0,72.807-52.903,86.706-74.04c6.93-10.537,11.819-22.069,11.004-37.286C353.617,257.825,331.593,235.578,304.62,235.578"/>
<path style="fill:#4C213A;" d="M257.346,411.047c-4.337,0-10.278,0-49.847-32.571c-14.506-11.94-40.23-34.079-49.533-48.197
	c-6.324-9.596-14.599-24.84-13.453-46.316c1.902-35.52,30.621-63.345,65.381-63.345c23.1,0,38.529,12.608,47.426,20.565
	c9.138-7.923,24.953-20.565,47.299-20.565c34.76,0,63.478,27.824,65.378,63.343c1.149,21.435-7.123,36.693-13.444,46.306
	c-9.419,14.325-34.899,36.38-49.247,48.252C267.989,411.047,261.585,411.047,257.346,411.047z M209.893,250.54
	c-18.543,0-34.467,15.71-35.501,35.019c-0.53,9.898,2.03,18.35,8.558,28.254c10.254,15.561,57.704,53.922,74.529,65.333
	c17.232-11.466,64.105-50.162,74.072-65.319c6.62-10.067,9.102-18.255,8.565-28.266c-1.032-19.312-16.957-35.021-35.498-35.021
	c-12.56,0-22.233,8.465-29.298,14.647c-5.729,5.013-10.676,9.342-18.064,9.342c-7.666,0-12.813-4.654-18.264-9.581
	C231.895,258.528,223.059,250.54,209.893,250.54z"/>
</svg>