<?xml version="1.0" encoding="iso-8859-1"?>
<!-- Uploaded to: SVG Repo, www.svgrepo.com, Generator: SVG Repo Mixer Tools -->
<svg height="800px" width="800px" version="1.1" id="Layer_1" xmlns="http://www.w3.org/2000/svg" xmlns:xlink="http://www.w3.org/1999/xlink" 
	 viewBox="0 0 504.32 504.32" xml:space="preserve">
<g transform="translate(1 1)">
	<path style="fill:#F2EDDA;" d="M231.107,327.96h147.627c0,64.853-39.253,121.173-98.133,150.187
		c-26.453,13.653-57.173,20.48-89.6,20.48C87.747,498.627,3.267,422.68,3.267,327.96H75.8h75.093
		c2.56,5.12,8.533,8.533,14.507,8.533c3.413,0,6.827-0.853,9.387-2.56c2.56,6.827,8.533,11.093,16.213,11.093
		s13.653-5.12,16.213-11.093c2.56,1.707,5.973,2.56,9.387,2.56C222.573,336.493,228.547,333.08,231.107,327.96"/>
	<path style="fill:#AE938D;" d="M191,379.16c0,0,8.533,12.8,8.533,17.067s-3.413,8.533-8.533,8.533c-5.12,0-8.533-4.267-8.533-8.533
		S191,379.16,191,379.16z M148.333,370.627c0,0-2.56,14.507-5.973,17.92c-3.413,3.413-8.533,3.413-11.947,0
		c-3.413-3.413-3.413-8.533,0-11.947C133.827,373.187,148.333,370.627,148.333,370.627z M251.587,376.6
		c3.413,3.413,3.413,8.533,0,11.947c-3.413,3.413-8.533,3.413-11.947,0c-3.413-3.413-5.973-17.92-5.973-17.92
		S248.173,373.187,251.587,376.6z"/>
	<path style="fill:#50DD8E;" d="M250.733,46.36c25.6,25.6,34.133,93.867,34.133,93.867c-11.093-2.56-21.333-4.267-30.72-5.12l0,0
		c-17.92-5.12-41.813-16.213-63.147-37.547c-34.133-34.133-34.133-93.867-34.133-93.867S208.067,3.693,250.733,46.36"/>
	<path style="fill:#FF7474;" d="M254.147,135.107c17.92,5.12,30.72,5.12,30.72,5.12s25.6-8.533,51.2-8.533
		c76.8,0,162.133,50.347,162.133,162.133c0,110.933-67.413,204.8-145.067,204.8c-32.427,0-63.147-11.093-71.68-19.627l-0.853-0.853
		c58.027-29.013,98.133-85.333,98.133-150.187H231.107c-2.56,5.12-8.533,8.533-14.507,8.533c-3.413,0-6.827-0.853-9.387-2.56
		c-2.56,6.827-8.533,11.093-16.213,11.093s-13.653-5.12-16.213-11.093c-2.56,1.707-5.973,2.56-9.387,2.56
		c-5.973,0-11.947-3.413-14.507-8.533H75.8c-2.56-13.653-4.267-34.133-4.267-34.133c0-96.427,56.32-137.387,123.733-157.867
		C210.627,131.693,228.547,131.693,254.147,135.107L254.147,135.107z"/>
</g>
<path style="fill:#51565F;" d="M354.133,503.893c-5.12,0-19.627,0-34.987-2.56c-2.56,0-4.267-2.56-3.413-5.12
	c0-2.56,2.56-4.267,5.12-3.413c14.507,2.56,29.013,2.56,33.28,2.56c75.093,0,140.8-93.867,140.8-200.533
	c0-108.373-81.92-157.867-157.867-157.867c-24.747,0-49.493,8.533-49.493,8.533c-0.853,0-0.853,0-1.707,0
	c-2.56,0-53.76-0.853-97.28-43.52C153.6,66.987,153.6,7.253,153.6,4.693s1.707-4.267,4.267-4.267c2.56,0,53.76,0.853,97.28,43.52
	c15.36,15.36,24.747,46.08,29.867,68.267c12.8-51.2,56.32-76.8,58.88-77.653c1.707-0.853,4.267-0.853,5.973,1.707
	c0.853,1.707,0.853,4.267-1.707,5.973c-0.853,0-54.613,31.573-57.173,93.013c9.387-2.56,28.16-6.827,46.933-6.827
	c80.213,0,166.4,52.053,166.4,166.4C503.467,408.32,435.2,503.893,354.133,503.893z M162.133,8.96
	c0.853,14.507,5.973,58.88,32.427,86.187c33.28,33.28,72.533,40.107,86.187,40.96C278.187,119.893,268.8,70.4,248.32,49.92
	C215.04,16.64,175.787,10.667,162.133,8.96z M192,503.893c-105.813,0-192-78.507-192-174.933c0-2.56,1.707-4.267,4.267-4.267
	h147.627c1.707,0,2.56,0.853,3.413,1.707c3.413,5.973,11.947,8.533,17.92,4.267c0.853-0.853,2.56-0.853,3.413-0.853
	c0.853,0,2.56,1.707,2.56,2.56c1.707,5.12,6.827,8.533,11.947,8.533c5.12,0,10.24-3.413,11.947-8.533
	c0.853-0.853,1.707-2.56,2.56-2.56c0.853,0,2.56,0,3.413,0.853c5.973,4.267,14.507,1.707,17.92-4.267
	c0.853-1.707,2.56-1.707,3.413-1.707h147.627c2.56,0,4.267,1.707,4.267,4.267C384,425.387,297.813,503.893,192,503.893z
	 M8.533,333.227C11.093,422.827,92.16,495.36,192,495.36c99.84,0,180.907-72.533,183.467-162.133h-140.8
	c-5.973,7.68-16.213,10.24-24.747,6.827c-4.267,5.973-10.24,10.24-17.92,10.24c-7.68,0-14.507-4.267-17.92-10.24
	c-8.533,3.413-18.773,0-24.747-6.827H8.533z M192,410.027c-6.827,0-12.8-5.973-12.8-12.8c0-5.12,6.827-15.36,9.387-19.627
	c1.707-2.56,5.12-2.56,6.827,0c2.56,4.267,9.387,13.653,9.387,19.627C204.8,404.053,198.827,410.027,192,410.027z M192,387.84
	c-2.56,4.267-4.267,7.68-4.267,9.387c0,2.56,1.707,4.267,4.267,4.267s4.267-1.707,4.267-4.267
	C196.267,395.52,194.56,392.107,192,387.84z M246.613,396.373c-3.413,0-6.827-1.707-9.387-3.413
	c-4.267-4.267-5.973-15.36-6.827-20.48c0-1.707,0-2.56,0.853-3.413c0.853-0.853,2.56-1.707,3.413-0.853
	c5.12,0.853,16.213,3.413,20.48,6.827c2.56,2.56,3.413,5.973,3.413,9.387c0,3.413-1.707,6.827-3.413,9.387
	C253.44,395.52,250.027,396.373,246.613,396.373z M240.64,377.6c0.853,4.267,2.56,8.533,3.413,9.387
	c1.707,1.707,4.267,1.707,5.973,0c0.853-0.853,0.853-1.707,0.853-3.413s-0.853-2.56-0.853-3.413
	C249.173,380.16,244.907,378.453,240.64,377.6z M137.387,396.373c-3.413,0-6.827-0.853-9.387-3.413
	c-2.56-2.56-3.413-5.973-3.413-9.387c0-3.413,1.707-6.827,3.413-9.387c4.267-4.267,15.36-5.973,20.48-6.827
	c1.707,0,2.56,0,3.413,0.853c0.853,0.853,1.707,2.56,0.853,3.413c-0.853,5.12-3.413,16.213-6.827,20.48l0,0
	C144.213,395.52,140.8,396.373,137.387,396.373z M143.36,377.6c-4.267,0.853-8.533,2.56-9.387,3.413
	c-0.853,0.853-0.853,1.707-0.853,3.413c0,0.853,0.853,2.56,0.853,3.413c1.707,1.707,4.267,1.707,5.973,0
	C140.8,386.133,142.507,381.867,143.36,377.6z M72.533,299.093c-2.56,0-4.267-1.707-4.267-4.267
	c0-83.627,41.813-136.533,127.147-161.28c2.56-0.853,4.267,0.853,5.12,2.56c0.853,2.56-0.853,4.267-2.56,5.12
	c-81.92,23.893-120.32,73.387-120.32,153.6C76.8,297.387,75.093,299.093,72.533,299.093z M460.8,264.96
	c-1.707,0-3.413-1.707-4.267-3.413c-6.827-28.16-23.04-51.2-45.227-66.56c-1.707-1.707-2.56-4.267-0.853-5.973
	s4.267-2.56,5.973-0.853c23.893,17.067,40.96,41.813,48.64,71.68c0.853,2.56-0.853,4.267-3.413,5.12
	C460.8,264.96,460.8,264.96,460.8,264.96z M379.733,178.773h-0.853l-17.067-4.267c-2.56-0.853-3.413-2.56-3.413-5.12
	c0.853-2.56,2.56-3.413,5.12-3.413c5.973,0.853,11.947,2.56,17.92,4.267c2.56,0.853,3.413,3.413,2.56,5.12
	C383.147,177.92,381.44,178.773,379.733,178.773z"/>
</svg>