<?xml version="1.0" encoding="utf-8"?>
<!-- Uploaded to: SVG Repo, www.svgrepo.com, Generator: SVG Repo Mixer Tools -->
<svg width="800px" height="800px" viewBox="-3.84 0 50.111 50.111" xmlns="http://www.w3.org/2000/svg">
  <g id="Group_1638" data-name="Group 1638" transform="translate(3289.749 -2328.146)">
    <path id="Path_3618" data-name="Path 3618" d="M-3281.791,2344.029c4.162,4.161,12.057,3.014,12.057,3.014s1.147-7.894-3.015-12.056-12.055-3.015-12.055-3.015-1.148,7.9,3.013,12.057" fill="#ffffff" fill-rule="evenodd"/>
    <path id="Path_3619" data-name="Path 3619" d="M-3278.718,2347.1c4.161,4.162,12.056,3.014,12.056,3.014s1.147-7.894-3.014-12.056-12.056-3.014-12.056-3.014-1.148,7.9,3.014,12.056" fill="#5db67d" fill-rule="evenodd"/>
    <path id="Path_3620" data-name="Path 3620" d="M-3283.927,2332.85c-.15,1.977-.246,7.439,2.816,10.5s8.522,2.967,10.5,2.817c.149-1.976.245-7.44-2.816-10.5S-3281.95,2332.7-3283.927,2332.85Zm11.7,15.3c-2.834,0-7.322-.522-10.244-3.445-4.452-4.451-3.336-12.531-3.286-12.873a.961.961,0,0,1,.812-.812c.341-.048,8.422-1.167,12.874,3.284s3.335,12.531,3.285,12.874a.96.96,0,0,1-.812.812,19.646,19.646,0,0,1-2.629.16" fill="#6f0911" fill-rule="evenodd"/>
    <path id="Path_3621" data-name="Path 3621" d="M-3260.527,2330.279a.959.959,0,0,1-.946-.806.96.96,0,0,1,.794-1.1,19.786,19.786,0,0,1,2.171-.225.945.945,0,0,1,1.007.91.96.96,0,0,1-.911,1.007,17.472,17.472,0,0,0-1.96.205,1.206,1.206,0,0,1-.155.011" fill="#6f0911" fill-rule="evenodd"/>
    <path id="Path_3622" data-name="Path 3622" d="M-3269.452,2348.9a.96.96,0,0,1-.954-.871c-.047-.5-1.092-12.361,3.159-16.611a9.522,9.522,0,0,1,2.219-1.635.96.96,0,0,1,1.3.388.959.959,0,0,1-.389,1.3,7.612,7.612,0,0,0-1.773,1.305c-3,3-2.9,11.9-2.6,15.076a.96.96,0,0,1-.868,1.043c-.03,0-.06.005-.09.005" fill="#6f0911" fill-rule="evenodd"/>
    <path id="Path_3623" data-name="Path 3623" d="M-3275.989,2344.464a11.158,11.158,0,0,1,6.4,2.071,11.157,11.157,0,0,1,6.4-2.071c7.068,0,12.8,6.877,12.8,15.36s-5.732,15.36-12.8,15.36a11.156,11.156,0,0,1-6.4-2.071,11.157,11.157,0,0,1-6.4,2.071c-7.07,0-12.8-6.877-12.8-15.36s5.73-15.36,12.8-15.36" fill="#ffffff" fill-rule="evenodd"/>
    <path id="Path_3624" data-name="Path 3624" d="M-3272.917,2347.536a11.158,11.158,0,0,1,6.4,2.071,11.157,11.157,0,0,1,6.4-2.071c7.07,0,12.8,6.877,12.8,15.36s-5.73,15.36-12.8,15.36a11.157,11.157,0,0,1-6.4-2.071,11.158,11.158,0,0,1-6.4,2.071c-7.069,0-12.8-6.877-12.8-15.36s5.731-15.36,12.8-15.36" fill="#eb196a" fill-rule="evenodd"/>
    <path id="Path_3625" data-name="Path 3625" d="M-3269.589,2372.153a.964.964,0,0,1,.548.171,10.246,10.246,0,0,0,5.852,1.9c6.528,0,11.84-6.46,11.84-14.4s-5.312-14.4-11.84-14.4a10.246,10.246,0,0,0-5.852,1.9.962.962,0,0,1-1.1,0,10.243,10.243,0,0,0-5.851-1.9c-6.528,0-11.84,6.46-11.84,14.4s5.312,14.4,11.84,14.4a10.243,10.243,0,0,0,5.851-1.9A.969.969,0,0,1-3269.589,2372.153Zm6.4,3.991a12.062,12.062,0,0,1-6.4-1.882,12.063,12.063,0,0,1-6.4,1.882c-7.588,0-13.76-7.321-13.76-16.32s6.172-16.32,13.76-16.32a12.065,12.065,0,0,1,6.4,1.882,12.064,12.064,0,0,1,6.4-1.882c7.587,0,13.76,7.321,13.76,16.32s-6.173,16.32-13.76,16.32" fill="#6f0911" fill-rule="evenodd"/>
    <path id="Path_3626" data-name="Path 3626" d="M-3264.733,2369.5a6.6,6.6,0,0,1-1.19-.109.961.961,0,0,1-.77-1.119.963.963,0,0,1,1.118-.77c2.5.462,5.064-1.188,6.234-4.008a.959.959,0,0,1,1.254-.518.96.96,0,0,1,.519,1.254,8.019,8.019,0,0,1-7.165,5.27" fill="#6f0911" fill-rule="evenodd"/>
    <path id="Path_3627" data-name="Path 3627" d="M-3257.837,2360.578a.96.96,0,0,1-.953-.86,7.865,7.865,0,0,0-.208-1.145.96.96,0,0,1,.688-1.171.959.959,0,0,1,1.17.688,9.806,9.806,0,0,1,.259,1.428.959.959,0,0,1-.853,1.055c-.035,0-.069,0-.1,0" fill="#6f0911" fill-rule="evenodd"/>
  </g>
</svg>