<?xml version="1.0" encoding="iso-8859-1"?>
<!-- Uploaded to: SVG Repo, www.svgrepo.com, Generator: SVG Repo Mixer Tools -->
<svg height="800px" width="800px" version="1.1" id="Capa_1" xmlns="http://www.w3.org/2000/svg" xmlns:xlink="http://www.w3.org/1999/xlink" 
	 viewBox="0 0 417.002 417.002" xml:space="preserve">
<g>
	<g>
		<path style="fill:#D4B783;" d="M214.501,184.081V26c0-3.309-2.691-6-6-6c-3.309,0-6,2.691-6,6v158.08
			c2.034,1.379,4.038,2.856,6,4.454C210.463,186.936,212.467,185.46,214.501,184.081z"/>
		<path style="fill:#F24646;" d="M297.662,387.093h-15.817c-4.032,0-7.669-2.421-9.226-6.141c-1.556-3.72-0.726-8.01,2.105-10.881
			c20.89-21.185,32.395-49.234,32.395-78.978c0-26.644-7.621-50.948-21.458-68.437c-12.365-15.628-28.925-24.592-45.434-24.592
			c-4.656,0-9.267,0.72-13.781,2.101c-3.762,2.467-7.401,5.436-10.874,8.908c-1.876,1.875-4.419,2.929-7.071,2.929
			c-0.849,0-1.684-0.119-2.493-0.328c-1.717-0.443-3.303-1.326-4.579-2.601c-11.513-11.514-24.839-17.6-38.536-17.6
			c-8.988,0-17.984,2.68-26.316,7.624c-0.678,0.596-1.355,1.04-2.03,1.252c-6.207,4.012-12.006,9.289-17.09,15.714
			c-13.837,17.487-21.457,41.793-21.457,68.439c0,29.744,11.504,57.793,32.394,78.978c2.831,2.871,3.661,7.161,2.104,10.881
			c-1.556,3.72-5.193,6.141-9.225,6.141h-4.508h-11.31c-6.751,0-12.913,2.546-17.597,6.717c-0.037,0.087-0.093,0.152-0.192,0.167
			c-2.912,2.644-5.241,5.92-6.752,9.616h237.392C313.447,390.964,305.999,387.093,297.662,387.093z M208.501,372.002
			c-5.523,0-10-4.478-10-10c0-5.523,4.477-10,10-10c37.22,0,67.5-30.28,67.5-67.5c0-5.523,4.478-10,10-10s10,4.477,10,10
			C296.001,332.75,256.749,372.002,208.501,372.002z"/>
	</g>
	<g>
		<path d="M316.854,360.803c15.689-22.185,24.147-48.619,24.147-76.301c0-31.128-9.153-59.84-25.773-80.847
			c-16.182-20.451-38.459-32.182-61.118-32.182c-6.675,0-13.237,1.005-19.608,2.945V26c0-14.337-11.663-26-26-26
			c-14.336,0-26,11.663-26,26v148.419c-6.371-1.941-12.933-2.945-19.608-2.945c-22.662,0-44.939,11.729-61.12,32.18
			c-16.62,21.005-25.772,49.718-25.772,80.849c0,27.682,8.459,54.116,24.147,76.301c-23.149,2.643-41.191,22.354-41.191,46.199
			c0,5.522,4.477,10,10,10h279.088c5.522,0,10-4.478,10-10C358.045,383.157,340.003,363.446,316.854,360.803z M202.501,26
			c0-3.309,2.691-6,6-6c3.309,0,6,2.691,6,6v158.081c-2.034,1.379-4.038,2.856-6,4.454c-1.962-1.598-3.966-3.074-6-4.454V26z
			 M318.308,397.002H80.916c1.512-3.696,3.84-6.972,6.752-9.616c0.063-0.057,0.129-0.11,0.192-0.167
			c4.684-4.171,10.846-6.717,17.597-6.717h11.31h4.508c4.032,0,7.67-2.421,9.225-6.141c1.556-3.72,0.727-8.01-2.104-10.881
			c-20.89-21.186-32.394-49.234-32.394-78.978c0-26.646,7.62-50.951,21.457-68.439c5.083-6.425,10.883-11.701,17.09-15.714
			c0.671-0.434,1.349-0.848,2.03-1.252c8.332-4.944,17.327-7.624,26.316-7.624c13.698,0,27.023,6.086,38.536,17.6
			c1.275,1.274,2.862,2.158,4.579,2.601c0.809,0.208,1.643,0.328,2.493,0.328c2.652,0,5.195-1.054,7.071-2.929
			c3.472-3.472,7.111-6.441,10.874-8.908c8.713-5.713,18.096-8.692,27.664-8.692c16.509,0,33.068,8.964,45.434,24.592
			c13.837,17.488,21.458,41.793,21.458,68.437c0,29.744-11.505,57.793-32.395,78.978c-2.83,2.871-3.66,7.161-2.104,10.881
			c1.557,3.72,5.193,6.141,9.226,6.141h15.817c11.076,0,20.587,6.83,24.541,16.5H318.308z"/>
		<path d="M286.001,274.502c-5.522,0-10,4.477-10,10c0,37.22-30.28,67.5-67.5,67.5c-5.523,0-10,4.477-10,10c0,5.522,4.477,10,10,10
			c48.248,0,87.5-39.252,87.5-87.5C296.001,278.979,291.523,274.502,286.001,274.502z"/>
	</g>
</g>
</svg>